<?xml version="1.0" encoding="UTF-8" standalone="no"?>
<!DOCTYPE svg PUBLIC "-//W3C//DTD SVG 1.1//EN" "http://www.w3.org/Graphics/SVG/1.1/DTD/svg11.dtd">
<svg xmlns="http://www.w3.org/2000/svg" version="1.1" viewBox="0 0 1643 638" width="1643.0pt" height="638.0pt">
<path d="M 0.00 0.00 L 1643.00 0.00 L 1643.00 638.00 L 0.00 638.00 L 0.00 0.00 Z" fill="#ffffff" />
<path d="M 333.16 166.73 C 333.33 183.15 333.11 199.58 333.28 216.00 C 333.22 217.53 333.29 219.24 332.76 220.70 C 330.12 222.82 326.83 224.21 323.89 225.88 C 301.52 238.18 279.11 250.44 256.75 262.75 C 254.03 264.18 251.17 266.29 248.13 266.87 C 244.91 265.75 242.00 263.61 239.04 261.95 C 226.67 254.82 214.32 247.65 201.93 240.56 C 242.44 217.49 283.16 194.73 323.72 171.72 C 326.78 169.89 329.94 168.27 333.16 166.73 Z" fill="#8fd7fb" />
<path d="M 344.43 166.64 C 349.93 169.35 355.16 172.52 360.51 175.50 C 395.24 195.09 429.97 214.71 464.70 234.30 C 468.38 236.27 471.94 238.34 475.41 240.65 C 462.80 247.96 450.14 255.21 437.52 262.51 C 434.84 264.02 432.07 266.10 429.07 266.85 C 426.28 266.00 423.69 264.26 421.14 262.87 C 395.57 248.79 369.92 234.86 344.39 220.72 C 344.39 202.69 344.31 184.66 344.43 166.64 Z" fill="#8fd7fb" />
<path d="M 863.38 219.62 C 873.67 219.64 883.95 219.63 894.24 219.63 C 894.25 238.69 894.29 257.76 894.22 276.82 C 899.80 270.49 906.70 266.23 914.76 263.78 C 921.50 261.53 928.90 262.07 936.02 262.20 C 950.33 263.37 964.03 270.89 972.54 282.49 C 980.67 293.40 984.21 306.54 984.80 320.00 C 985.32 332.69 982.82 346.20 976.38 357.26 C 970.81 367.08 962.12 375.15 951.79 379.75 C 942.10 384.25 931.54 385.39 920.97 384.41 C 910.13 383.19 899.85 378.05 892.54 369.92 C 892.47 373.88 892.46 377.84 892.48 381.80 C 882.77 381.84 873.05 381.81 863.34 381.82 C 863.37 327.76 863.28 273.68 863.38 219.62 Z" fill="#131515" />
<path d="M 1348.32 219.62 C 1358.50 219.62 1368.68 219.68 1378.87 219.59 C 1379.61 225.07 1379.19 230.49 1379.28 236.00 C 1379.35 261.91 1379.16 287.82 1379.38 313.72 C 1391.79 297.29 1404.38 280.98 1416.89 264.62 C 1428.51 264.64 1440.14 264.55 1451.77 264.67 C 1437.90 282.33 1424.12 300.07 1410.38 317.83 C 1425.30 339.08 1439.98 360.51 1454.84 381.80 C 1442.70 381.84 1430.55 381.83 1418.40 381.80 C 1405.46 361.70 1392.22 341.77 1379.43 321.57 C 1379.10 341.62 1379.35 361.68 1379.30 381.73 C 1368.96 381.93 1358.61 381.77 1348.26 381.82 C 1348.30 327.76 1348.19 273.68 1348.32 219.62 Z" fill="#131515" />
<path d="M 338.87 230.64 C 365.16 244.97 391.51 259.46 417.75 273.89 C 394.08 287.51 370.41 301.14 346.76 314.79 C 344.20 316.21 341.62 318.09 338.80 318.91 C 336.05 318.18 333.53 316.30 331.05 314.93 C 307.33 301.21 283.54 287.59 259.82 273.86 C 283.73 260.75 307.64 247.64 331.54 234.53 C 333.98 233.17 336.34 231.81 338.87 230.64 Z" fill="#1579c1" />
<path d="M 196.43 250.53 C 210.19 257.97 223.54 266.17 237.20 273.78 C 239.08 274.86 241.12 275.90 242.76 277.31 C 243.58 281.06 243.10 285.17 243.17 289.00 C 243.20 316.00 243.10 343.00 243.23 370.00 C 243.09 371.37 243.44 373.41 242.60 374.53 C 240.97 375.96 238.90 376.96 237.02 378.03 C 223.44 385.65 210.10 393.71 196.45 401.21 C 196.33 350.98 196.37 300.76 196.43 250.53 Z" fill="#8fd7fb" />
<path d="M 481.16 250.38 C 481.24 300.64 481.24 350.91 481.16 401.17 C 465.42 392.57 450.04 383.30 434.42 374.49 C 434.37 342.10 434.39 309.71 434.41 277.31 C 449.96 268.28 465.55 259.30 481.16 250.38 Z" fill="#8fd7fb" />
<path d="M 817.26 265.55 C 827.81 269.35 836.79 276.92 842.43 286.59 C 850.37 300.25 851.99 315.22 851.39 330.76 C 827.26 330.79 803.13 330.78 779.00 330.77 C 775.37 330.63 771.88 330.82 768.27 331.25 C 769.22 339.62 772.82 347.32 779.88 352.19 C 794.87 362.42 816.93 358.62 827.54 343.84 C 834.73 348.47 841.26 354.08 848.19 359.08 C 842.71 368.12 834.13 375.26 824.51 379.53 C 812.97 384.81 800.41 385.54 787.95 384.09 C 774.79 382.36 762.32 376.51 753.07 366.93 C 744.49 357.89 739.05 345.90 737.55 333.56 C 735.42 318.28 738.10 301.67 746.22 288.41 C 752.63 277.83 762.46 269.47 774.13 265.25 C 787.91 260.11 803.51 260.57 817.26 265.55 Z" fill="#131515" />
<path d="M 1093.02 270.98 C 1107.37 280.47 1115.73 296.21 1117.95 313.04 C 1119.50 326.13 1118.29 340.02 1113.00 352.21 C 1108.15 363.79 1099.49 373.63 1088.14 379.15 C 1077.81 384.37 1066.30 385.54 1054.90 384.19 C 1044.96 382.71 1034.83 377.85 1028.32 370.04 C 1028.13 372.38 1027.82 374.68 1027.78 377.00 C 1027.83 392.57 1027.79 408.16 1027.80 423.73 C 1017.51 423.72 1007.21 423.73 996.92 423.73 C 996.92 370.69 996.91 317.65 996.92 264.62 C 1006.67 264.61 1016.41 264.61 1026.16 264.62 C 1026.16 268.69 1026.18 272.77 1026.18 276.84 C 1029.36 273.38 1032.84 270.27 1036.97 267.98 C 1054.02 258.05 1076.87 260.31 1093.02 270.98 Z" fill="#131515" />
<path d="M 1194.81 263.45 C 1204.10 265.58 1212.59 269.81 1218.27 277.70 C 1224.49 286.34 1226.08 296.59 1226.29 307.00 C 1226.29 331.94 1226.29 356.88 1226.29 381.82 C 1217.13 381.82 1207.97 381.82 1198.81 381.82 C 1198.17 379.35 1197.53 376.88 1196.93 374.39 C 1193.93 377.06 1190.91 379.56 1187.21 381.20 C 1179.58 384.71 1171.25 385.04 1163.00 384.53 C 1152.72 383.75 1142.15 379.55 1134.85 372.13 C 1124.62 362.14 1121.88 346.53 1126.18 333.16 C 1129.29 323.86 1136.17 316.39 1144.97 312.17 C 1160.37 304.72 1180.20 304.91 1195.33 313.02 C 1195.30 307.63 1196.04 302.49 1193.34 297.55 C 1190.33 291.89 1184.12 289.30 1178.03 288.64 C 1165.49 287.60 1153.83 291.09 1142.72 296.64 C 1138.72 289.68 1134.88 282.61 1130.99 275.58 C 1141.81 268.49 1154.06 264.36 1166.80 262.40 C 1176.06 260.98 1185.66 261.54 1194.81 263.45 Z" fill="#131515" />
<path d="M 1307.02 262.21 C 1317.85 263.18 1327.96 267.84 1336.73 274.11 C 1333.84 282.79 1330.93 291.47 1327.99 300.13 C 1321.80 295.01 1315.19 290.95 1307.13 289.63 C 1303.12 289.12 1299.01 289.12 1294.98 289.52 C 1286.38 290.65 1278.51 295.79 1273.83 303.08 C 1268.01 312.11 1266.71 323.98 1269.65 334.22 C 1272.15 343.03 1278.40 350.54 1286.76 354.34 C 1294.35 357.74 1303.14 358.40 1311.14 356.09 C 1317.52 354.37 1322.94 350.97 1328.18 347.07 C 1331.04 355.42 1333.53 363.90 1336.54 372.20 C 1326.20 380.33 1313.18 384.93 1300.00 384.73 C 1285.14 385.00 1270.42 380.54 1258.79 371.17 C 1246.72 361.62 1239.43 347.14 1237.56 331.98 C 1237.14 326.03 1237.07 319.94 1237.72 314.01 C 1239.24 304.08 1242.97 294.21 1249.03 286.14 C 1257.02 275.16 1268.92 267.40 1282.01 263.97 C 1290.28 261.49 1298.40 262.05 1307.02 262.21 Z" fill="#131515" />
<path d="M 552.05 264.63 C 563.25 264.58 574.44 264.65 585.64 264.59 C 592.80 292.11 599.24 319.82 606.42 347.32 C 614.20 319.85 621.38 292.16 628.92 264.62 C 638.65 264.61 648.39 264.62 658.12 264.61 C 665.34 291.96 672.94 319.25 679.94 346.65 C 680.27 346.52 680.59 346.40 680.92 346.27 C 687.55 319.00 694.44 291.78 701.39 264.60 C 712.59 264.65 723.78 264.58 734.98 264.63 C 723.33 303.72 711.48 342.75 699.78 381.82 C 688.21 381.80 676.64 381.86 665.07 381.79 C 659.87 363.56 654.60 345.34 649.38 327.12 C 647.65 320.36 645.11 313.75 643.90 306.90 C 642.88 309.57 641.90 312.25 641.12 315.00 C 634.68 337.26 628.21 359.53 621.74 381.79 C 610.17 381.85 598.60 381.82 587.04 381.81 C 575.42 342.74 563.65 303.70 552.05 264.63 Z" fill="#131515" />
<path d="M 254.49 283.87 C 279.70 298.13 304.67 312.83 329.86 327.13 C 331.19 328.11 333.43 328.79 333.18 330.83 C 333.23 357.89 333.24 385.17 333.17 412.23 C 327.28 409.44 321.70 406.12 315.97 403.03 C 295.45 391.80 274.98 380.49 254.45 369.28 C 254.45 340.81 254.37 312.34 254.49 283.87 Z" fill="#1579c1" />
<path d="M 423.20 283.99 C 423.28 312.39 423.20 340.79 423.24 369.20 C 397.01 383.68 370.70 398.04 344.42 412.45 C 344.35 384.67 344.40 356.89 344.40 329.11 C 367.80 315.61 391.25 302.14 414.65 288.63 C 417.41 286.91 420.29 285.44 423.20 283.99 Z" fill="#1579c1" />
<path d="M 813.97 295.04 C 817.86 299.44 819.66 304.93 820.01 310.74 C 803.10 310.79 786.17 310.81 769.25 310.72 C 770.25 305.17 771.85 299.96 775.56 295.59 C 784.72 284.31 804.44 284.23 813.97 295.04 Z" fill="#ffffff" />
<path d="M 913.45 290.64 C 917.54 289.20 921.71 289.15 926.00 289.30 C 934.32 289.52 942.31 294.21 947.02 300.99 C 951.97 307.86 953.74 316.65 953.51 325.00 C 953.26 333.46 950.98 341.78 945.18 348.16 C 934.83 360.15 913.76 360.63 902.87 349.13 C 897.82 344.13 895.03 337.36 893.80 330.45 C 892.61 321.02 893.49 311.58 898.29 303.21 C 901.59 297.29 907.04 292.83 913.45 290.64 Z" fill="#ffffff" />
<path d="M 1046.62 290.85 C 1050.98 289.20 1055.40 289.13 1060.01 289.31 C 1069.35 289.63 1078.14 295.31 1082.62 303.46 C 1086.71 310.79 1088.07 319.73 1087.12 328.01 C 1086.11 336.38 1082.90 344.74 1076.47 350.44 C 1066.03 359.69 1048.83 359.79 1038.20 350.80 C 1032.05 345.53 1028.71 337.97 1027.63 330.05 C 1026.52 320.73 1027.28 311.36 1032.16 303.15 C 1035.43 297.52 1040.50 293.14 1046.62 290.85 Z" fill="#ffffff" />
<path d="M 1169.13 329.01 C 1176.36 327.41 1185.72 328.41 1191.36 333.65 C 1195.98 337.89 1196.62 344.30 1194.97 350.06 C 1192.69 355.94 1187.05 359.29 1181.06 360.34 C 1174.71 361.12 1168.15 360.92 1162.60 357.40 C 1157.97 354.51 1154.86 349.57 1155.24 343.99 C 1155.44 336.14 1161.82 330.57 1169.13 329.01 Z" fill="#ffffff" />
<path d="M 253.19 381.68 C 257.72 383.60 262.00 386.32 266.36 388.64 C 287.05 399.92 307.65 411.38 328.38 422.60 C 329.91 423.53 332.04 424.42 333.02 425.97 C 333.43 428.93 333.23 432.01 333.23 435.00 C 333.16 450.46 333.30 465.91 333.16 481.37 C 322.63 475.85 312.43 469.72 302.02 463.98 C 269.78 445.70 237.41 427.64 205.25 409.25 C 221.23 400.09 237.15 390.74 253.19 381.68 Z" fill="#8fd7fb" />
<path d="M 424.09 381.64 C 428.34 383.67 432.33 386.27 436.43 388.57 C 448.37 395.48 460.36 402.31 472.29 409.25 C 469.14 411.16 465.96 412.99 462.74 414.76 C 427.16 434.84 391.58 454.93 356.00 475.01 C 352.19 477.21 348.35 479.36 344.44 481.37 C 344.32 462.68 344.38 444.00 344.41 425.31 C 370.94 410.79 397.49 396.01 424.09 381.64 Z" fill="#8fd7fb" />
</svg>