<?xml version="1.0" encoding="UTF-8" standalone="no"?>
<!DOCTYPE svg PUBLIC "-//W3C//DTD SVG 1.1//EN" "http://www.w3.org/Graphics/SVG/1.1/DTD/svg11.dtd">
<svg xmlns="http://www.w3.org/2000/svg" version="1.1" viewBox="0 0 1024 1024" width="1024.0pt" height="1024.0pt">
<path d="M 0.00 0.00 L 1024.00 0.00 L 1024.00 1024.00 L 0.00 1024.00 L 0.00 0.00 Z" fill="#ffffff" />
<path d="M 522.61 428.47 C 525.22 428.25 527.87 428.36 530.48 428.38 C 530.47 457.39 530.50 486.40 530.47 515.42 C 527.83 515.42 525.18 515.42 522.53 515.41 C 522.57 486.51 522.41 457.34 522.61 428.47 Z" fill="#060606" />
<path d="M 554.35 428.43 C 556.97 428.24 559.63 428.38 562.25 428.47 C 562.24 456.33 562.20 484.18 562.27 512.04 C 562.13 513.28 562.60 514.50 561.51 515.36 C 559.11 515.51 556.66 515.44 554.25 515.41 C 554.33 486.49 554.12 457.32 554.35 428.43 Z" fill="#060606" />
<path d="M 855.35 428.43 C 857.99 428.24 860.67 428.37 863.31 428.45 C 863.27 457.43 863.30 486.40 863.29 515.38 C 860.61 515.41 857.93 515.42 855.25 515.42 C 855.33 486.50 855.12 457.32 855.35 428.43 Z" fill="#060606" />
<path d="M 196.00 433.46 C 207.42 433.26 219.54 437.15 227.91 445.10 C 243.68 460.07 243.68 488.92 227.85 503.85 C 219.54 511.65 208.28 515.34 197.00 515.45 C 185.59 515.49 174.19 515.46 162.79 515.47 C 162.77 488.15 162.80 460.83 162.77 433.51 C 173.85 433.44 184.93 433.52 196.00 433.46 Z" fill="#060606" />
<path d="M 677.73 433.50 C 680.42 433.43 683.12 433.49 685.81 433.50 C 685.80 460.81 685.80 488.12 685.81 515.42 C 683.53 515.42 681.26 515.41 678.99 515.39 C 661.43 493.32 644.10 471.05 626.46 449.04 C 626.30 471.16 626.44 493.28 626.39 515.40 C 623.53 515.42 620.66 515.42 617.79 515.37 C 617.80 488.09 617.80 460.82 617.79 433.54 C 620.20 433.50 622.60 433.49 625.00 433.52 C 642.46 455.70 660.00 477.80 677.53 499.92 C 677.81 477.79 677.42 455.62 677.73 433.50 Z" fill="#060606" />
<path d="M 171.48 440.79 C 178.32 440.88 185.16 440.81 192.00 440.82 C 198.31 440.94 204.29 441.21 210.25 443.48 C 218.56 446.33 225.55 452.86 228.83 461.03 C 233.33 472.52 231.87 487.10 223.50 496.50 C 217.10 503.96 206.69 507.89 196.99 507.78 C 188.44 507.83 179.88 507.80 171.33 507.79 C 171.43 485.46 171.14 463.11 171.48 440.79 Z" fill="#ffffff" />
<path d="M 281.01 453.13 C 286.82 453.50 293.52 454.99 297.67 459.37 C 301.85 463.43 303.65 469.27 303.68 474.99 C 303.70 488.47 303.70 501.95 303.68 515.43 C 301.20 515.42 298.72 515.42 296.24 515.42 C 296.23 512.39 296.22 509.35 296.21 506.32 C 294.35 508.51 292.64 510.61 290.20 512.20 C 285.89 515.16 280.15 516.18 275.01 516.31 C 269.38 516.16 263.08 515.04 258.59 511.38 C 251.02 505.55 250.39 492.78 257.11 486.11 C 261.52 482.12 268.19 480.54 273.99 480.43 C 281.25 480.36 288.52 480.46 295.78 480.39 C 295.63 475.66 296.02 471.49 293.47 467.27 C 290.86 462.73 285.96 461.01 281.01 460.48 C 272.77 459.82 264.22 462.14 257.89 467.58 C 256.57 465.46 255.31 463.31 254.16 461.09 C 261.91 455.33 271.44 452.83 281.01 453.13 Z" fill="#060606" />
<path d="M 357.44 453.03 C 357.44 455.74 357.43 458.46 357.42 461.17 C 351.62 461.10 346.18 461.77 341.66 465.73 C 336.34 470.38 334.89 477.23 334.65 484.00 C 334.59 494.48 334.68 504.95 334.62 515.43 C 331.95 515.42 329.29 515.42 326.63 515.42 C 326.62 494.93 326.63 474.44 326.63 453.95 C 329.23 453.97 331.84 454.00 334.44 454.07 C 334.39 457.81 334.41 461.55 334.47 465.29 C 336.21 462.65 337.68 460.08 340.29 458.20 C 345.31 454.34 351.24 453.19 357.44 453.03 Z" fill="#060606" />
<path d="M 398.21 453.54 C 405.22 452.35 413.55 453.33 419.45 457.57 C 425.61 461.98 428.65 469.59 428.68 477.00 C 428.72 489.81 428.69 502.62 428.69 515.43 C 426.03 515.42 423.38 515.41 420.72 515.38 C 420.72 504.25 420.72 493.12 420.72 482.00 C 420.65 478.16 420.72 474.61 419.21 471.00 C 417.30 465.77 412.73 462.08 407.25 461.14 C 400.23 459.86 391.63 461.14 386.50 466.52 C 381.91 471.32 380.70 477.49 380.57 483.92 C 380.52 494.42 380.59 504.92 380.54 515.41 C 377.89 515.42 375.25 515.42 372.60 515.42 C 372.59 494.93 372.59 474.44 372.60 453.95 C 375.20 453.97 377.80 454.00 380.40 454.08 C 380.36 457.61 380.38 461.15 380.41 464.68 C 384.75 458.27 390.61 454.76 398.21 453.54 Z" fill="#060606" />
<path d="M 496.55 461.46 C 503.42 468.30 505.82 477.79 505.40 487.26 C 488.22 487.28 471.05 487.23 453.88 487.28 C 454.24 490.85 454.82 494.25 456.72 497.36 C 461.16 505.30 470.07 509.38 479.00 508.72 C 486.09 509.01 492.08 505.70 497.08 500.95 C 498.64 502.70 500.16 504.48 501.67 506.27 C 488.68 521.23 460.31 519.24 450.20 501.91 C 442.81 489.58 444.34 471.89 454.52 461.53 C 465.55 450.37 485.55 450.19 496.55 461.46 Z" fill="#060606" />
<path d="M 729.48 453.76 C 739.84 451.64 752.00 454.78 759.11 462.89 C 764.71 468.86 767.24 476.88 766.85 485.00 C 767.27 494.43 763.15 503.79 755.75 509.66 C 743.52 519.40 723.92 518.33 713.11 506.90 C 704.39 497.56 702.60 483.11 707.29 471.45 C 711.15 462.21 719.60 455.45 729.48 453.76 Z" fill="#060606" />
<path d="M 830.26 462.69 C 836.26 469.56 838.28 478.30 837.77 487.26 C 820.58 487.29 803.39 487.21 786.21 487.30 C 786.89 495.45 791.36 502.67 798.77 506.31 C 804.26 509.16 810.10 508.98 816.10 508.42 C 821.72 507.52 825.51 504.31 829.86 500.99 C 831.22 502.75 832.59 504.50 834.01 506.22 C 826.76 515.11 813.83 517.75 803.01 515.54 C 792.26 513.80 782.92 505.85 779.77 495.39 C 776.39 483.88 778.36 469.89 787.32 461.32 C 798.77 449.86 819.62 450.39 830.26 462.69 Z" fill="#060606" />
<path d="M 489.82 465.30 C 494.53 469.33 497.02 475.13 497.62 481.22 C 482.95 481.24 468.27 481.27 453.60 481.21 C 454.62 473.61 458.07 466.67 465.01 462.92 C 472.83 458.73 482.98 459.59 489.82 465.30 Z" fill="#ffffff" />
<path d="M 730.17 461.05 C 736.17 459.59 743.01 460.43 748.27 463.75 C 754.48 467.69 758.32 474.69 758.65 482.00 C 758.82 486.25 758.78 490.30 757.20 494.31 C 754.68 501.32 748.43 506.95 741.09 508.42 C 736.32 508.91 730.56 509.17 726.21 506.87 C 718.54 503.39 713.42 495.39 713.26 486.99 C 713.17 483.34 713.10 479.20 714.39 475.73 C 716.72 468.61 722.76 462.67 730.17 461.05 Z" fill="#ffffff" />
<path d="M 821.44 464.59 C 826.63 468.54 829.64 474.75 829.91 481.23 C 815.35 481.24 800.79 481.26 786.23 481.22 C 786.92 475.09 789.33 469.15 794.17 465.15 C 801.74 458.87 813.61 458.69 821.44 464.59 Z" fill="#ffffff" />
<path d="M 276.00 486.48 C 282.57 486.40 289.14 486.49 295.71 486.45 C 295.59 490.22 296.16 494.33 295.30 498.01 C 293.28 502.38 289.64 506.24 285.13 508.06 C 281.13 509.89 276.23 509.77 271.93 509.40 C 267.84 508.89 263.17 506.55 261.58 502.52 C 259.56 498.23 260.48 492.34 264.48 489.50 C 267.72 487.19 272.11 486.52 276.00 486.48 Z" fill="#ffffff" />
<path d="M 269.64 547.03 C 431.32 547.07 593.02 547.08 754.70 547.02 C 754.67 561.52 754.70 576.02 754.68 590.52 C 593.00 590.51 431.32 590.54 269.64 590.50 C 269.65 576.01 269.65 561.52 269.64 547.03 Z" fill="#060606" />
<path d="M 753.49 548.37 C 753.45 562.02 753.54 575.67 753.44 589.31 C 592.51 589.32 431.58 589.30 270.66 589.32 C 270.62 575.68 270.69 562.03 270.62 548.38 C 431.57 548.33 592.53 548.35 753.49 548.37 Z" fill="#ffffff" />
<path d="M 324.63 555.67 C 325.67 555.54 326.71 555.45 327.75 555.38 C 327.79 562.84 327.78 570.29 327.76 577.75 C 326.68 577.72 325.60 577.68 324.53 577.65 C 324.65 570.33 324.37 562.97 324.63 555.67 Z" fill="#060606" />
<path d="M 340.81 555.51 C 341.76 562.74 340.96 570.23 341.25 577.53 C 340.08 577.62 338.90 577.71 337.73 577.80 C 337.69 570.37 337.73 562.93 337.71 555.50 C 338.74 555.49 339.78 555.49 340.81 555.51 Z" fill="#060606" />
<path d="M 445.30 555.60 C 445.31 560.00 445.17 564.47 445.47 568.86 C 447.99 567.16 449.27 564.51 451.44 562.50 C 452.63 562.39 453.81 562.34 455.01 562.34 C 453.70 564.00 452.30 565.59 451.03 567.28 C 450.30 568.19 449.69 569.41 450.46 570.50 C 451.91 573.00 453.67 575.31 455.20 577.76 C 453.97 577.73 452.74 577.64 451.52 577.47 C 449.79 575.53 448.49 573.18 447.06 571.02 C 446.39 571.12 445.71 571.22 445.04 571.33 C 445.18 573.42 445.28 575.51 445.39 577.60 L 441.70 577.74 C 441.70 570.33 441.70 562.92 441.70 555.51 C 442.90 555.53 444.10 555.56 445.30 555.60 Z" fill="#060606" />
<path d="M 280.56 556.45 C 284.83 556.19 289.15 556.41 293.43 556.41 C 293.45 557.23 293.47 558.05 293.49 558.87 C 290.41 558.95 287.34 558.97 284.27 558.97 C 284.27 561.23 284.26 563.49 284.26 565.75 C 286.50 566.15 291.21 564.67 292.54 566.96 C 291.54 569.53 286.44 567.89 284.27 568.33 C 284.26 571.42 284.26 574.52 284.28 577.61 C 283.01 577.67 281.74 577.71 280.48 577.76 C 280.54 570.66 280.32 563.54 280.56 556.45 Z" fill="#060606" />
<path d="M 533.40 555.51 L 536.66 555.53 C 536.66 558.32 536.67 561.11 536.64 563.91 C 539.95 562.50 542.75 561.11 545.47 564.50 C 547.84 568.15 547.26 575.70 542.50 577.36 C 540.31 578.25 538.77 577.26 536.86 576.33 C 535.92 577.70 534.91 577.59 533.44 577.97 C 533.34 570.49 533.40 563.00 533.40 555.51 Z" fill="#060606" />
<path d="M 567.65 556.50 C 570.71 556.23 573.92 556.24 576.99 556.49 C 581.34 556.90 585.47 560.43 585.72 564.95 C 586.08 568.94 585.71 572.68 582.41 575.35 C 578.37 578.72 572.47 577.56 567.56 577.66 C 567.66 570.61 567.42 563.54 567.65 556.50 Z" fill="#060606" />
<path d="M 659.23 555.53 C 660.28 555.52 661.33 555.51 662.38 555.51 C 662.40 562.90 662.37 570.29 662.40 577.69 C 661.35 577.70 660.30 577.72 659.25 577.74 C 659.22 570.34 659.25 562.93 659.23 555.53 Z" fill="#060606" />
<path d="M 365.39 557.42 C 368.94 555.28 372.10 556.64 375.27 558.62 C 374.86 559.36 374.46 560.11 374.06 560.86 C 372.36 560.47 370.76 559.99 369.03 559.80 C 366.98 559.54 365.63 561.17 365.68 563.15 C 368.73 565.65 372.74 565.70 375.51 568.77 C 375.30 571.17 375.96 573.29 374.12 575.15 C 371.35 578.37 367.02 578.31 363.54 576.32 C 361.90 575.56 362.08 574.84 362.27 573.22 C 364.98 572.82 367.54 574.84 370.24 574.18 C 371.42 573.68 371.99 571.96 372.73 570.97 C 370.41 568.30 367.24 568.28 364.45 566.57 C 361.23 564.23 362.05 559.23 365.39 557.42 Z" fill="#060606" />
<path d="M 474.07 556.33 C 475.42 556.38 476.77 556.45 478.11 556.54 C 479.47 561.87 481.24 566.85 482.11 572.28 C 484.34 567.02 485.69 561.48 487.74 556.15 L 490.19 556.64 C 492.64 561.56 493.37 567.17 495.89 572.12 C 496.72 566.73 498.46 561.73 499.87 556.48 C 501.15 556.44 502.43 556.40 503.71 556.36 C 501.57 563.46 499.32 570.53 497.24 577.65 C 496.12 577.66 495.00 577.66 493.88 577.66 C 492.28 572.35 490.60 567.07 488.95 561.78 C 487.06 566.89 485.42 572.13 484.03 577.41 C 482.89 577.56 481.75 577.70 480.61 577.85 C 478.61 571.91 476.95 565.86 475.04 559.90 C 474.70 558.71 474.38 557.52 474.07 556.33 Z" fill="#060606" />
<path d="M 388.55 557.12 C 388.65 558.84 388.72 560.56 388.77 562.28 C 390.13 562.31 391.50 562.34 392.87 562.38 C 393.36 565.89 390.95 564.56 388.69 565.27 C 388.72 568.32 388.72 571.38 388.73 574.44 C 390.45 574.96 392.17 575.48 393.87 576.07 C 391.05 577.74 387.72 578.96 385.75 575.39 C 385.29 572.16 385.60 568.78 385.56 565.53 C 384.18 564.97 383.38 564.12 383.16 562.98 C 387.57 562.54 384.85 558.37 388.55 557.12 Z" fill="#060606" />
<path d="M 571.37 558.92 C 573.79 559.05 576.92 558.59 579.08 559.79 C 583.17 562.62 583.36 569.66 580.29 573.28 C 578.28 575.70 574.18 575.02 571.37 575.15 C 571.37 569.74 571.37 564.33 571.37 558.92 Z" fill="#ffffff" />
<path d="M 302.32 562.43 C 303.38 562.36 304.44 562.31 305.50 562.28 C 305.48 566.26 305.46 570.25 305.57 574.23 C 306.37 574.59 307.17 574.94 307.98 575.30 C 309.12 574.93 310.26 574.55 311.40 574.18 C 311.51 570.21 311.49 566.24 311.48 562.27 L 314.58 562.39 C 314.97 567.59 314.72 572.87 314.69 578.08 C 312.63 577.34 311.48 575.91 309.25 577.13 C 306.52 578.50 303.02 577.16 302.46 574.08 C 302.04 570.32 302.08 566.21 302.32 562.43 Z" fill="#060606" />
<path d="M 411.26 563.82 C 413.09 568.20 412.22 573.28 412.30 578.10 C 411.09 577.56 410.06 576.93 408.99 576.16 C 406.55 577.14 404.55 578.63 401.97 577.01 C 399.99 575.84 400.10 573.44 400.60 571.49 C 402.39 568.87 405.80 568.68 408.64 568.16 C 409.01 567.75 409.39 567.33 409.76 566.92 C 407.19 563.68 404.86 565.61 401.47 565.77 L 401.22 564.13 C 404.92 561.95 407.44 561.76 411.26 563.82 Z" fill="#060606" />
<path d="M 522.74 564.24 C 524.71 566.17 524.38 568.32 524.61 570.85 C 521.20 570.91 517.79 570.90 514.38 570.92 C 514.83 572.14 515.27 573.35 515.71 574.57 C 519.11 575.88 522.19 573.17 524.89 575.47 C 521.61 577.53 518.04 578.78 514.48 576.51 C 511.08 574.43 510.87 570.11 511.78 566.63 C 513.55 562.34 519.40 560.75 522.74 564.24 Z" fill="#060606" />
<path d="M 614.68 562.48 C 615.83 562.40 617.00 562.38 618.16 562.36 C 619.49 566.25 620.90 570.10 622.04 574.05 C 623.31 570.18 624.79 566.40 625.97 562.50 C 627.15 562.45 628.34 562.41 629.52 562.38 C 627.26 567.41 625.75 572.79 623.33 577.73 L 620.74 577.67 C 618.42 572.75 616.79 567.51 614.68 562.48 Z" fill="#060606" />
<path d="M 676.44 562.58 C 681.24 561.25 686.15 564.91 685.65 570.00 C 686.23 575.73 680.08 579.48 675.10 576.92 C 669.42 574.04 670.05 564.24 676.44 562.58 Z" fill="#060606" />
<path d="M 694.67 562.39 C 696.89 562.39 697.01 561.85 697.97 564.19 C 700.01 563.06 701.68 561.90 704.16 562.50 C 705.83 563.34 707.53 564.92 707.66 566.90 C 707.96 570.52 708.46 574.76 704.79 576.86 C 702.45 578.41 700.49 577.41 698.09 576.72 C 698.15 578.69 698.18 580.66 698.22 582.63 C 697.00 582.71 695.79 582.78 694.57 582.85 C 694.67 576.03 694.43 569.20 694.67 562.39 Z" fill="#060606" />
<path d="M 747.36 562.25 C 747.32 563.30 747.28 564.36 747.25 565.41 C 745.61 565.80 743.98 566.19 742.34 566.58 C 742.17 570.22 742.18 573.87 742.22 577.51 C 741.01 577.62 739.80 577.72 738.59 577.82 C 738.55 572.57 738.53 567.32 738.60 562.08 C 741.11 562.58 741.18 562.30 741.88 564.74 C 743.83 562.85 744.62 562.39 747.36 562.25 Z" fill="#060606" />
<path d="M 431.80 563.24 C 432.93 563.50 433.18 564.31 432.56 565.66 C 430.19 565.27 428.07 564.95 425.67 565.42 C 424.34 569.19 424.32 570.75 425.63 574.54 C 428.41 575.23 429.69 575.17 432.18 573.81 C 432.67 574.51 433.15 575.21 433.63 575.92 C 430.53 577.28 427.59 578.81 424.39 576.64 C 420.90 574.28 421.00 570.54 421.66 566.78 C 423.30 562.86 428.06 561.08 431.80 563.24 Z" fill="#060606" />
<path d="M 605.14 563.79 C 607.52 565.72 607.44 567.98 607.59 570.79 C 604.17 570.91 600.75 570.91 597.32 570.93 C 597.77 572.17 598.24 573.41 598.71 574.65 C 601.35 575.21 603.66 574.72 606.26 574.34 L 607.39 575.92 C 604.30 577.33 601.44 578.61 598.11 576.93 C 594.92 575.28 593.99 572.38 594.29 568.95 C 594.19 563.65 601.08 560.20 605.14 563.79 Z" fill="#060606" />
<path d="M 648.06 563.97 C 649.97 565.45 649.91 568.46 650.52 570.65 C 647.07 570.95 643.62 570.94 640.16 570.90 C 640.37 572.02 640.59 573.14 640.82 574.25 C 642.18 574.57 643.66 575.25 645.04 574.92 C 647.20 574.93 649.03 573.27 650.15 575.90 C 646.54 577.50 643.29 578.84 639.68 576.28 C 636.74 574.37 637.08 571.02 637.22 567.94 C 637.35 562.92 644.62 560.51 648.06 563.97 Z" fill="#060606" />
<path d="M 727.16 563.78 C 729.55 565.70 729.45 567.99 729.61 570.80 C 726.19 570.91 722.77 570.91 719.35 570.93 C 719.79 572.16 720.25 573.39 720.71 574.62 C 723.37 575.23 725.66 574.73 728.28 574.34 L 729.41 575.93 C 726.31 577.34 723.44 578.61 720.12 576.92 C 716.95 575.27 716.00 572.37 716.30 568.96 C 716.23 563.66 723.07 560.21 727.16 563.78 Z" fill="#060606" />
<path d="M 516.21 565.45 C 517.98 564.43 519.40 565.31 521.22 565.64 C 521.37 566.53 521.53 567.43 521.68 568.32 C 519.18 568.31 516.68 568.28 514.19 568.09 C 514.84 567.20 515.45 566.25 516.21 565.45 Z" fill="#ffffff" />
<path d="M 539.86 564.80 C 540.71 564.98 541.57 565.16 542.42 565.35 C 543.86 568.85 543.67 571.14 542.35 574.61 C 540.34 575.10 538.66 574.89 536.67 574.45 C 536.67 571.85 536.61 569.25 536.66 566.65 C 537.68 565.81 538.62 565.27 539.86 564.80 Z" fill="#ffffff" />
<path d="M 601.98 565.00 C 604.09 565.33 604.21 566.56 604.87 568.25 C 602.34 568.32 599.81 568.31 597.28 568.25 C 598.47 566.08 599.03 564.46 601.98 565.00 Z" fill="#ffffff" />
<path d="M 646.22 565.24 C 646.67 566.24 647.12 567.23 647.58 568.22 C 645.09 568.29 642.60 568.30 640.12 568.30 C 640.38 567.45 640.65 566.60 640.93 565.76 C 642.73 564.95 644.31 565.03 646.22 565.24 Z" fill="#ffffff" />
<path d="M 681.31 565.41 C 682.64 569.01 682.67 571.00 681.34 574.61 C 679.35 574.99 677.58 574.94 675.59 574.61 C 674.51 571.14 674.24 568.96 675.68 565.52 C 677.60 564.89 679.36 565.11 681.31 565.41 Z" fill="#ffffff" />
<path d="M 704.30 566.82 C 704.79 569.26 704.99 572.46 703.28 574.50 C 701.50 575.52 700.01 574.87 698.16 574.55 C 698.13 571.59 698.10 568.66 698.39 565.72 C 700.35 565.03 703.54 564.06 704.30 566.82 Z" fill="#ffffff" />
<path d="M 720.88 565.60 C 722.73 564.36 724.26 565.27 726.20 565.65 C 726.35 566.54 726.50 567.42 726.65 568.30 C 724.19 568.31 721.74 568.30 719.28 568.25 C 719.79 567.35 720.31 566.46 720.88 565.60 Z" fill="#ffffff" />
<path d="M 409.82 571.28 C 408.98 573.55 408.31 574.36 406.13 575.51 C 405.21 575.13 404.29 574.75 403.37 574.36 C 403.43 573.51 403.52 572.65 403.62 571.80 C 405.79 571.10 407.56 570.96 409.82 571.28 Z" fill="#ffffff" />
</svg>